/* XPM */
static const char *gasgauge[]={
"91 113 6 1",
"b c #000000",
"d c #0000ff",
"a c #9d9da1",
". c #a8a9bb",
"# c #e0dfe3",
"c c #ffffff",
".##########################################################################################",
".##########################################################################################",
".##########################################################################################",
".##########################################################################################",
".##########################################################################################",
".##########################################################################################",
".##########################################################################################",
".a#########bbbbbbbbbbbbbbbbbbbbbbbbbbbbbbbbbbbbbbbbbbbbbbbbbbbbbbbbbbbbbbbbbbbbbbb#########",
".#############################################bccccccccccccccccccccccccccccccccccb#########",
".#############################################bccccccccccccccccccccccccccccccccccb#########",
".#############################################bccccccccccccccccccccccccccccccccccb#########",
".#############################################bccccccccccccccccccccccccccccccccccb#########",
".#############################################bccccccccccccccccccccccccccccccccccb#########",
".#############################################bccccccccccccccccccccccccccccccccccb#########",
".#############################################bccccccccccccccccccccccccccccccccccb#########",
".#############################################bccccccccccccccccccccccccccccccccccb#########",
".############################bbbbbbbbbbbbbbbbbbccccccccccccccccccccccccccccccccccb#########",
".a############################################bccccccccccccccccccccccccccccccccccb#########",
".#############################################bccccccccccccccccccccccccccccccccccb#########",
".#############################################bccccccccccccccccccccccccccccccccccb#########",
".#############################################bccccccccccccccccccccccccccccccccccb#########",
".#############################################bccccccccccccccccccccccccccccccccccb#########",
".#############################################bccccccccccccccccccccccccccccccccccb#########",
".#############################################bccccccccccccccccccccccccccccccccccb#########",
".#############################################bccccccccccccccccccccccccccccccccccb#########",
".#############################################bccccccccccccccccccccccccccccccccccb#########",
".############################bbbbbbbbbbbbbbbbbbccccccccccccccccccccccccccccccccccb#########",
".a############################################bccccccccccccccccccccccccccccccccccb#########",
".#############################################bccccccccccccccccccccccccccccccccccb#########",
".#############################################bccccccccccccccccccccccccccccccccccb#########",
".#############################################bccccccccccccccccccccccccccccccccccb#########",
".#############################################bccccccccccccccccccccccccccccccccccb#########",
".#############################################bccccccccccccccccccccccccccccccccccb#########",
".#############################################bccccccccccccccccccccccccccccccccccb#########",
".#############################################bccccccccccccccccccccccccccccccccccb#########",
".#############################################bccccccccccccccccccccccccccccccccccb#########",
".############################bbbbbbbbbbbbbbbbbbccccccccccccccccccccccccccccccccccb#########",
".a############################################bccccccccccccccccccccccccccccccccccb#########",
".#############################################bccccccccccccccccccccccccccccccccccb#########",
".#############################################bccccccccccccccccccccccccccccccccccb#########",
".#############################################bccccccccccccccccccccccccccccccccccb#########",
".#############################################bccccccccccccccccccccccccccccccccccb#########",
".#############################################bccccccccccccccccccccccccccccccccccb#########",
".#############################################bccccccccccccccccccccccccccccccccccb#########",
".#############################################bccccccccccccccccccccccccccccccccccb#########",
".#############################################bccccccccccccccccccccccccccccccccccb#########",
".############################bbbbbbbbbbbbbbbbbbccccccccccccccccccccccccccccccccccb#########",
".a############################################bccccccccccccccccccccccccccccccccccb#########",
".#############################################bccccccccccccccccccccccccccccccccccb#########",
".#############################################bccccccccccccccccccccccccccccccccccb#########",
".#############################################bccccccccccccccccccccccccccccccccccb#########",
".#############################################bccccccccccccccccccccccccccccccccccb#########",
".#############################################bccccccccccccccccccccccccccccccccccb#########",
".#############################################bccccccccccccccccccccccccccccccccccb#########",
".#############################################bccccccccccccccccccccccccccccccccccb#########",
".#############################################bccccccccccccccccccccccccccccccccccb#########",
".##########bbbbbbbbbbbbbbbbbbbbbbbbbbbbbbbbbbbbccccccccccccccccccccccccccccccccccb#########",
".a############################################bddddddddddddddddddddddddddddddddddb#########",
".#############################################bddddddddddddddddddddddddddddddddddb#########",
".#############################################bddddddddddddddddddddddddddddddddddb#########",
".#############################################bddddddddddddddddddddddddddddddddddb#########",
".#############################################bddddddddddddddddddddddddddddddddddb#########",
".#############################################bddddddddddddddddddddddddddddddddddb#########",
".#############################################bddddddddddddddddddddddddddddddddddb#########",
".#############################################bddddddddddddddddddddddddddddddddddb#########",
".#############################################bddddddddddddddddddddddddddddddddddb#########",
".############################bbbbbbbbbbbbbbbbbbddddddddddddddddddddddddddddddddddb#########",
".a############################################bddddddddddddddddddddddddddddddddddb#########",
".#############################################bddddddddddddddddddddddddddddddddddb#########",
".#############################################bddddddddddddddddddddddddddddddddddb#########",
".#############################################bddddddddddddddddddddddddddddddddddb#########",
".#############################################bddddddddddddddddddddddddddddddddddb#########",
".#############################################bddddddddddddddddddddddddddddddddddb#########",
".#############################################bddddddddddddddddddddddddddddddddddb#########",
".#############################################bddddddddddddddddddddddddddddddddddb#########",
".#############################################bddddddddddddddddddddddddddddddddddb#########",
".############################bbbbbbbbbbbbbbbbbbddddddddddddddddddddddddddddddddddb#########",
".a############################################bddddddddddddddddddddddddddddddddddb#########",
".#############################################bddddddddddddddddddddddddddddddddddb#########",
".#############################################bddddddddddddddddddddddddddddddddddb#########",
".#############################################bddddddddddddddddddddddddddddddddddb#########",
".#############################################bddddddddddddddddddddddddddddddddddb#########",
".#############################################bddddddddddddddddddddddddddddddddddb#########",
".#############################################bddddddddddddddddddddddddddddddddddb#########",
".#############################################bddddddddddddddddddddddddddddddddddb#########",
".#############################################bddddddddddddddddddddddddddddddddddb#########",
".############################bbbbbbbbbbbbbbbbbbddddddddddddddddddddddddddddddddddb#########",
".a############################################bddddddddddddddddddddddddddddddddddb#########",
".#############################################bddddddddddddddddddddddddddddddddddb#########",
".#############################################bddddddddddddddddddddddddddddddddddb#########",
".#############################################bddddddddddddddddddddddddddddddddddb#########",
".#############################################bddddddddddddddddddddddddddddddddddb#########",
".#############################################bddddddddddddddddddddddddddddddddddb#########",
".#############################################bddddddddddddddddddddddddddddddddddb#########",
".#############################################bddddddddddddddddddddddddddddddddddb#########",
".#############################################bddddddddddddddddddddddddddddddddddb#########",
".############################bbbbbbbbbbbbbbbbbbddddddddddddddddddddddddddddddddddb#########",
".a############################################bddddddddddddddddddddddddddddddddddb#########",
".#############################################bddddddddddddddddddddddddddddddddddb#########",
".#############################################bddddddddddddddddddddddddddddddddddb#########",
".#############################################bddddddddddddddddddddddddddddddddddb#########",
".#############################################bddddddddddddddddddddddddddddddddddb#########",
".#############################################bddddddddddddddddddddddddddddddddddb#########",
".#############################################bddddddddddddddddddddddddddddddddddb#########",
".#############################################bddddddddddddddddddddddddddddddddddb#########",
".#############################################bddddddddddddddddddddddddddddddddddb#########",
".##########bbbbbbbbbbbbbbbbbbbbbbbbbbbbbbbbbbbbbbbbbbbbbbbbbbbbbbbbbbbbbbbbbbbbbbb#########",
".a#########a#########a#########a#########a#########a#########a#########a#########a#########",
".##########################################################################################",
".##########################################################################################",
".##########################################################################################",
".##########################################################################################",
".##########################################################################################"};
