/* XPM */
static const char * gasanibutton[] = {
"32 32 15 1",
" 	c #000080",
".	c #008000",
"+	c #008080",
"@	c #800000",
"#	c #800080",
"$	c #808000",
"%	c #C0C0C0",
"&	c #808080",
"*	c #0000FF",
"=	c #00FF00",
"-	c #00FFFF",
";	c #FF0000",
">	c #FF00FF",
",	c #FFFF00",
"'	c #000000",
"%%%%%%%%%%%%%%%''%%%%%%%%''%%%%%",
"%%%%%%%%%%%%%%%'''%%%%%%''''%%%%",
"%%%%%%%%%%%%%%%%%''%%%%%%''''%%%",
"%%%%%%%%%%%%%%%%%%''%%%%%%''''%%",
"%%%%%%%%%%%%%%%%%%''%%%%%%'''''%",
"%%%%%%%%%%%%%%%%%''%%%%%%'''''''",
"%%%%%%%%%%%%%%%%''%%%%%%''''%'''",
"%%%%%%%%%%%%%%%''%%%%%%''''%%%'%",
"%%%%%%%%%%%%%%%'%%%%%%''''%%%%%%",
"%%%%%%%%%%%%%%%'%%%%%''''%%%%%%%",
"%%%%%%%%%%%%%%%''%%%''''%%%%%%%%",
"%%%%%%%%%%%%%%''''%''''%%%%%%%%%",
"%%%%%%%%%%%%%'''''''''%%%%%''%%%",
"%%%%%%%%%%%%'''''''''%%%%%''''%%",
"%%%%%%%%%%%'';;'''''''%%%''%%''%",
"%%%%%%%%%%'';;;;'''''''%''%%%%''",
"%%%%%%%%%'';;;;;;''''''''%%%%%''",
"%%%%%%%%'';;;;;;;;''''%%%%%%%%%%",
"%%%%%%%'';;;;;;;;;;''%%%%%%%%%%%",
"%%%%%%%';;;;;;;;;;''%%%%%%%%%%%%",
"%%%%%%%';;;;;;;;;''%%%%%%%%%%%%%",
"%%%%%%%';;;;;;;;''%%%%%%%%%%%%%%",
"%%%%%%%';;;;;;;''%%%%%%%%%%%%%%%",
"%%%%%%%';;;;;;''%%%%%%%%%%%%%%%%",
"%%%%%%%''''''''%%%%%%%%%%%%%%%%%",
"%%%%%%'%%%%%%%%%%%%%%%%%%%%%%%%%",
"%%%%%'%%%%%%%%%%%%%%%%%%%%%%%%%%",
"%%%%'%%%%%%%%%%%%%%%%%%%%%%%%%%%",
"%%%'%%%%%%%%%%%%%%%%%%%%%%%%%%%%",
"%%'%%%%%%%%%%%%%%%%%%%%%%%%%%%%%",
"%'%%%%%%%%%%%%%%%%%%%%%%%%%%%%%%",
"'%%%%%%%%%%%%%%%%%%%%%%%%%%%%%%%"};
